<?xml version="1.0" encoding="utf-8"?>
<!-- Generator: Adobe Illustrator 19.0.0, SVG Export Plug-In . SVG Version: 6.00 Build 0)  -->
<svg version="1.1" id="Capa_1" xmlns="http://www.w3.org/2000/svg" xmlns:xlink="http://www.w3.org/1999/xlink" x="0px" y="0px"
	 viewBox="-290 413.3 14.9 14.6" style="enable-background:new -290 413.3 14.9 14.6;" xml:space="preserve">
<style type="text/css">
	.st0{fill:#FFFFFF;}
</style>
<g id="XMLID_5398_">
	<g id="XMLID_5400_">
		<path id="XMLID_5404_" class="st0" d="M-277.6,427.4h-9.9c-1.3,0-2.3-1-2.3-2.3v-7.5c0-1.3,1-2.3,2.3-2.3h9.9c1.3,0,2.3,1,2.3,2.3
			v7.5C-275.2,426.4-276.3,427.4-277.6,427.4z M-287.5,416.2c-0.7,0-1.3,0.6-1.3,1.3v7.5c0,0.7,0.6,1.3,1.3,1.3h9.9
			c0.7,0,1.3-0.6,1.3-1.3v-7.5c0-0.7-0.6-1.3-1.3-1.3H-287.5z"/>
		<g id="XMLID_5401_">
			<path id="XMLID_5403_" class="st0" d="M-285.6,417.7L-285.6,417.7c-0.7,0-1.3-0.6-1.3-1.3V415c0-0.7,0.6-1.3,1.3-1.3l0,0
				c0.7,0,1.3,0.6,1.3,1.3v1.4C-284.3,417.1-284.9,417.7-285.6,417.7z"/>
			<path id="XMLID_5402_" class="st0" d="M-279.6,417.7L-279.6,417.7c-0.7,0-1.3-0.6-1.3-1.3V415c0-0.7,0.6-1.3,1.3-1.3l0,0
				c0.7,0,1.3,0.6,1.3,1.3v1.4C-278.3,417.1-278.9,417.7-279.6,417.7z"/>
		</g>
	</g>
</g>
</svg>
