<?xml version="1.0" encoding="UTF-8"?>
<svg xmlns="http://www.w3.org/2000/svg" xmlns:xlink="http://www.w3.org/1999/xlink" width="16px" height="17px" viewBox="0 0 16 17" version="1.1">
    
    <title>calendar icon</title>
    <desc>Created with Sketch.</desc>
    <g id="Page-1" stroke="none" stroke-width="1" fill="none" fill-rule="evenodd">
        <g id="01-steps" transform="translate(-2669.000000, -361.000000)" fill="#FFF">
            <g id="calendar-input" transform="translate(2463.000000, 318.000000)">
                <g id="Group-2" transform="translate(1.000000, 24.000000)">
                    <path d="M208.268852,28.5049772 L209.291803,28.5049772 L209.291803,27.4711311 L208.268852,27.4711311 L208.268852,28.5049772 Z M207.246157,29.5385649 L210.31501,29.5385649 L210.31501,26.4375434 L207.246157,26.4375434 L207.246157,29.5385649 Z M208.268852,32.6406203 L209.291803,32.6406203 L209.291803,31.6062572 L208.268852,31.6062572 L208.268852,32.6406203 Z M207.246157,33.674208 L210.31501,33.674208 L210.31501,30.5724111 L207.246157,30.5724111 L207.246157,33.674208 Z M212.360656,28.5049772 L213.383607,28.5049772 L213.383607,27.4711311 L212.360656,27.4711311 L212.360656,28.5049772 Z M211.337705,29.5385649 L214.406557,29.5385649 L214.406557,26.4375434 L211.337705,26.4375434 L211.337705,29.5385649 Z M212.360656,32.6406203 L213.383607,32.6406203 L213.383607,31.6062572 L212.360656,31.6062572 L212.360656,32.6406203 Z M211.337705,33.674208 L214.406557,33.674208 L214.406557,30.5724111 L211.337705,30.5724111 L211.337705,33.674208 Z M216.452459,28.5049772 L217.47541,28.5049772 L217.47541,27.4711311 L216.452459,27.4711311 L216.452459,28.5049772 Z M215.429508,29.5385649 L218.498361,29.5385649 L218.498361,26.4375434 L215.429508,26.4375434 L215.429508,29.5385649 Z M216.452459,32.6406203 L217.47541,32.6406203 L217.47541,31.6062572 L216.452459,31.6062572 L216.452459,32.6406203 Z M215.429508,33.674208 L218.498361,33.674208 L218.498361,30.5724111 L215.429508,30.5724111 L215.429508,33.674208 Z M219.521311,24.3698511 L206.222951,24.3698511 L206.222951,34.1911311 C206.222951,34.4767311 206.452092,34.7080542 206.734682,34.7080542 L219.009836,34.7080542 C219.292426,34.7080542 219.521311,34.4767311 219.521311,34.1911311 L219.521311,24.3698511 Z M219.521311,21.7852357 C219.521311,21.4993772 219.292426,21.2680542 219.009836,21.2680542 L216.452459,21.2680542 L216.452459,22.3024172 L215.429508,22.3024172 L215.429508,21.2680542 L210.314754,21.2680542 L210.314754,22.3024172 L209.291803,22.3024172 L209.291803,21.2680542 L206.734682,21.2680542 C206.452092,21.2680542 206.222951,21.4993772 206.222951,21.7852357 L206.222951,23.3360049 L219.521311,23.3360049 L219.521311,21.7852357 Z M219.521311,35.7419003 L206.222951,35.7419003 C205.658026,35.7419003 205.2,35.2792542 205.2,34.7080542 L205.2,24.3698511 L205.2,23.3360049 L205.2,21.2680542 C205.2,20.6971126 205.658026,20.234208 206.222951,20.234208 L209.291803,20.234208 L209.291803,19.2001034 L210.314754,19.2001034 L210.314754,20.234208 L215.429508,20.234208 L215.429508,19.2001034 L216.452459,19.2001034 L216.452459,20.234208 L220.032787,20.234208 C220.597711,20.234208 220.544262,20.6971126 220.544262,21.2680542 L220.544262,23.3360049 L220.544262,24.3698511 L220.544262,34.7080542 C220.544262,35.2792542 220.086236,35.7419003 219.521311,35.7419003 L219.521311,35.7419003 Z" id="calendar-icon"/>
                </g>
            </g>
        </g>
    </g>
</svg>
