<?xml version="1.0" encoding="utf-8"?>
<!-- Generator: Adobe Illustrator 24.1.3, SVG Export Plug-In . SVG Version: 6.00 Build 0)  -->
<svg version="1.1" id="Capa_1" xmlns="http://www.w3.org/2000/svg" xmlns:xlink="http://www.w3.org/1999/xlink" x="0px" y="0px"
	 viewBox="0 0 330 330" style="enable-background:new 0 0 330 330;" xml:space="preserve">
<style type="text/css">
	.st0{fill:#a53c3c;}
	.st1{fill:#ffd1d7;}
</style>
<path class="st0" d="M165,0C74,0,0,74,0,165s74,165,165,165s165-74,165-165S256,0,165,0z"/>
<path class="st1" d="M189.1,165l36-36c5.9-5.8,5.9-15.3,0-21.2c-5.6-5.7-14.7-5.9-20.6-0.5l-39.6,39.6L126,107.9
	c-5.9-5.9-15.4-5.9-21.2,0c-5.4,5.4-5.8,13.8-1.4,19.6l37.4,37.4l-36,36c-5.9,5.8-5.9,15.3,0,21.2c5.6,5.7,14.7,5.9,20.6,0.5
	l39.6-39.6l38.9,38.9c5.9,5.9,15.4,5.9,21.2,0c5.4-5.4,5.8-13.8,1.4-19.6L189.1,165z"/>
</svg>
