<?xml version="1.0" encoding="utf-8"?>
<!-- Generator: Adobe Illustrator 19.0.0, SVG Export Plug-In . SVG Version: 6.00 Build 0)  -->
<svg version="1.1" id="Capa_1" xmlns="http://www.w3.org/2000/svg" xmlns:xlink="http://www.w3.org/1999/xlink" x="0px" y="0px"
	 viewBox="-299 392 9.9 10" style="enable-background:new -299 392 9.9 10;" xml:space="preserve">
<title>flecha</title>
<path d="M-297.9,401.8c-0.2,0-0.5-0.1-0.7-0.3c-0.4-0.4-0.4-1,0-1.3l7.7-7.7c0.4-0.4,1-0.4,1.3,0s0.4,1,0,1.3l-7.7,7.7
	C-297.4,401.7-297.7,401.8-297.9,401.8z"/>
<path d="M-290.2,401.8c-0.2,0-0.5-0.1-0.7-0.3l-7.7-7.7c-0.4-0.4-0.4-1,0-1.3s1-0.4,1.3,0l7.7,7.7c0.4,0.4,0.4,1,0,1.3
	C-289.7,401.7-290,401.8-290.2,401.8z"/>
</svg>
