<svg xmlns="http://www.w3.org/2000/svg" width="15.4798" height="15.4788" viewBox="0 0 15.4798 15.4788"><defs><style>.cls-1{fill:#595959;}</style></defs><title>Recurso 13</title><g id="Capa_2" data-name="Capa 2"><g id="Capa_1-2" data-name="Capa 1"><path class="cls-1" d="M14.63.8489V.8479a2.9216,2.9216,0,0,0-4.1162,0L1.3394,10.0242a.3258.3258,0,0,0-.0645.0965l-.0087.02c-.0049.012-.009.0231-.0137.0383L.011,15.0523a.34.34,0,0,0,.33.4265.3162.3162,0,0,0,.085-.0112l4.8731-1.24a.1311.1311,0,0,0,.0288-.0111.2263.2263,0,0,0,.028-.0111.3445.3445,0,0,0,.1009-.0675L14.63,4.9644A2.9169,2.9169,0,0,0,14.63.8489ZM1.8011,14.414l-.9878.252.2514-.9879A1.73,1.73,0,0,1,1.8011,14.414Zm2.75-.7-2.08.5291a2.43,2.43,0,0,0-1.2348-1.2358l.5287-2.079Zm8.0715-7.7062L5.2157,13.4142,2.0643,10.2634,9.4709,2.8561Zm1.2844-1.2844-.8024.8024L9.9531,2.3741l.8024-.8007Zm.4642-.5008L11.2565,1.1077a2.2286,2.2286,0,0,1,3.1144,3.1149Z"/></g></g></svg>