<?xml version="1.0" encoding="utf-8"?>
<!-- Generator: Adobe Illustrator 19.0.0, SVG Export Plug-In . SVG Version: 6.00 Build 0)  -->
<svg version="1.1" id="Capa_1" xmlns="http://www.w3.org/2000/svg" xmlns:xlink="http://www.w3.org/1999/xlink" x="0px" y="0px"
	 viewBox="-288 410.4 18.6 17.9" style="enable-background:new -288 410.4 18.6 17.9;" xml:space="preserve">
<style type="text/css">
	.st0{fill:#FFFFFF;}
</style>
<path id="XMLID_36_" class="st0" d="M-284.8,427.1c0.3-1.7,0.6-3.3,0.8-4.9c0.1-0.3,0-0.5-0.2-0.8c-1.1-1-2.2-2.1-3.3-3.2
	c-0.3-0.3-0.5-0.7-0.4-1.1c0.2-0.5,0.5-0.6,1-0.7c1.5-0.2,3-0.4,4.6-0.7c0.3,0,0.5-0.2,0.6-0.4c0.7-1.4,1.4-2.8,2.1-4.2
	c0.2-0.4,0.5-0.7,1-0.6c0.4,0,0.7,0.3,0.9,0.6c0.7,1.4,1.4,2.8,2.1,4.2c0.1,0.3,0.3,0.4,0.6,0.5c1.5,0.2,3,0.4,4.6,0.7
	c0.5,0.1,0.8,0.2,1,0.7c0.2,0.5-0.1,0.8-0.4,1.1c-1.1,1.1-2.2,2.1-3.3,3.2c-0.2,0.2-0.3,0.4-0.2,0.8c0.3,1.5,0.5,3,0.8,4.5
	c0.1,0.4,0,0.9-0.4,1.1c-0.4,0.3-0.8,0.2-1.2,0c-1.4-0.7-2.7-1.4-4.1-2.2c-0.3-0.1-0.4-0.1-0.7,0c-1.4,0.7-2.7,1.4-4.1,2.1
	c-0.6,0.3-1.1,0.3-1.3-0.1C-284.6,427.6-284.7,427.3-284.8,427.1z"/>
</svg>
