<svg xmlns="http://www.w3.org/2000/svg" width="12.0396" height="10" viewBox="0 0 12.0396 10"><defs><style>.cls-1{fill:#fff;}</style></defs><title>flecha</title><g id="Capa_2" data-name="Capa 2"><g id="Capa_1-2" data-name="Capa 1"><path class="cls-1" d="M.6768,5.9441.658,5.94H8.7143L6.1817,8.4782a.665.665,0,0,0,0,.9351l.3941.3943a.6592.6592,0,0,0,.93,0L11.8476,5.467a.6636.6636,0,0,0,0-.9337L7.5062.1919a.66.66,0,0,0-.93,0L6.1817.5862a.6523.6523,0,0,0-.1921.4652.6326.6326,0,0,0,.1921.4564L8.7429,4.06H.6678A.6823.6823,0,0,0,0,4.7356v.5576A.6691.6691,0,0,0,.6768,5.9441Z"/></g></g></svg>