<?xml version="1.0" encoding="utf-8"?>
<!-- Generator: Adobe Illustrator 22.0.1, SVG Export Plug-In . SVG Version: 6.00 Build 0)  -->
<svg version="1.1" id="Capa_1" xmlns="http://www.w3.org/2000/svg" xmlns:xlink="http://www.w3.org/1999/xlink" x="0px" y="0px"
	 viewBox="0 0 10 14.9" style="enable-background:new 0 0 10 14.9;" xml:space="preserve">
<style type="text/css">
	.st0{fill:#FFF;}
</style>
<g>
	<path class="st0" d="M9.2,10.8H2.8c-0.3,0-0.5-0.4-0.2-0.6l1-1c0.3-0.3,0.2-0.7,0-1l0,0C3.3,7.9,2.9,8,2.7,8.2l-2.1,2.3
		c-0.5,0.5-0.5,1.4,0,1.9l2.2,2.3c0.3,0.3,0.7,0.3,1,0s0.3-0.7,0-1l-1-1c-0.2-0.2-0.1-0.6,0.2-0.6h6.4c0.4,0,0.6-0.3,0.6-0.7
		S9.6,10.8,9.2,10.8z"/>
	<path class="st0" d="M0.6,4.2H7c0.3,0,0.5,0.4,0.2,0.6l-1,1C6,6.1,6,6.5,6.3,6.8l0,0C6.6,7.1,7,7,7.2,6.8l2.1-2.3
		c0.5-0.5,0.5-1.4,0-1.9l-2-2.4c-0.3-0.3-0.7-0.3-1,0s-0.3,0.7,0,1l1,1c0.1,0.2,0,0.6-0.3,0.6H0.6C0.2,2.8,0,3.1,0,3.5
		S0.2,4.2,0.6,4.2z"/>
</g>
</svg>
