<svg xmlns="http://www.w3.org/2000/svg" width="286.045" height="286.054" viewBox="0 0 286.045 286.054"><defs><style>.cls-1{fill:#FFF;}</style></defs><title>checked</title><g id="Capa_2" data-name="Capa 2"><g id="Layer_1" data-name="Layer 1"><path class="cls-1" d="M143.027,0A143.027,143.027,0,1,0,286.045,143.027,143.022,143.022,0,0,0,143.027,0Zm0,259.236a116.209,116.209,0,1,1,116.2-116.209A116.2057,116.2057,0,0,1,143.027,259.236Zm56.21-177.049a12.451,12.451,0,0,0-17.342,4.827l-47.959,86.147-26.71-32.512c-4.836-5.569-11.263-8.456-17.333-4.827-6.079,3.638-8.591,12.39-4.657,18.004l37.169,45.241c2.78,3.611,5.953,5.775,9.27,6.392l.027.054.34.018c.751.116,11.979,2.19,16.815-6.463l55.048-98.876A13.4682,13.4682,0,0,0,199.237,82.187Z"/></g></g></svg>