<?xml version="1.0" encoding="UTF-8"?>
<svg width="11px" height="15px" viewBox="0 0 11 15" version="1.1" xmlns="http://www.w3.org/2000/svg" xmlns:xlink="http://www.w3.org/1999/xlink">
    <!-- Generator: Sketch 59 (86127) - https://sketch.com -->
    <title>Fill 1</title>
    <desc>Created with Sketch.</desc>
    <g id="brief" stroke="none" stroke-width="1" fill="none" fill-rule="evenodd">
        <g id="client---my-projects" transform="translate(-176.000000, -488.000000)" fill="#FFF">
            <path d="M183.707946,497.451108 C183.54335,497.546658 183.441896,497.723814 183.441896,497.915657 L183.441896,498.44709 L182.030086,498.44709 L182.030086,495.676891 C182.718446,495.45058 183.217556,494.796312 183.217556,494.026216 C183.217556,493.730366 182.980188,493.4905 182.687418,493.4905 C182.394648,493.4905 182.15728,493.730366 182.15728,494.026216 C182.15728,494.392419 181.862408,494.690464 181.499982,494.690464 C181.137557,494.690464 180.84265,494.392455 180.84265,494.026216 C180.84265,493.730366 180.605282,493.4905 180.312512,493.4905 C180.019742,493.4905 179.782374,493.730366 179.782374,494.026216 C179.782374,494.796276 180.281449,495.45058 180.969844,495.676891 L180.969844,498.44709 L179.558139,498.44709 L179.558139,497.915621 C179.558139,497.723814 179.456685,497.546658 179.292089,497.451108 C177.915474,496.651923 177.060346,495.160144 177.060346,493.557881 C177.060346,491.084063 179.051989,489.071431 181.500088,489.071431 C183.948186,489.071431 185.939829,491.084027 185.939829,493.557881 C185.939829,495.160179 185.084596,496.651994 183.707946,497.451108 L183.707946,497.451108 Z M183.441896,499.966296 C183.441896,501.048308 182.570765,501.928569 181.499982,501.928569 C180.4292,501.928569 179.558069,501.048273 179.558069,499.966296 L179.558069,499.518486 L183.441896,499.518486 L183.441896,499.966296 Z M187,493.557881 C187,490.493282 184.532711,488 181.499982,488 C178.467254,488 176,490.493282 176,493.557881 C176,495.437238 176.949542,497.193796 178.497722,498.215294 L178.497722,499.96626 C178.497722,501.639089 179.8445,503 181.499912,503 C183.155325,503 184.502103,501.639053 184.502103,499.966225 L184.502103,498.982806 C184.502103,498.982523 184.502068,498.215364 184.502068,498.215364 C186.050423,497.193796 187,495.437309 187,493.557881 L187,493.557881 Z" id="Fill-1"></path>
        </g>
    </g>
</svg>