<svg xmlns="http://www.w3.org/2000/svg" width="16.5" height="16.5" viewBox="0 0 16.5 16.5">
  <defs>
    <style>
      .cls-1 {
        fill: #eee;
      }

    </style>
  </defs>
  <title>imprimir</title>
  <g id="Capa_2" data-name="Capa 2">
    <g id="Capa_1-2" data-name="Capa 1">
      <path class="cls-1"
        d="M4.1251,1.0312h8.25V3.0937h1.0314V1.0312A1.0313,1.0313,0,0,0,12.3749,0h-8.25A1.032,1.032,0,0,0,3.0937,1.0312V3.0937H4.1251Z" />
      <path class="cls-1"
        d="M15.4689,4.1251H1.0312A1.0319,1.0319,0,0,0,0,5.1562v5.1563a1.0312,1.0312,0,0,0,1.0312,1.0313H3.0938v4.125A1.0312,1.0312,0,0,0,4.1251,16.5h8.25a1.03,1.03,0,0,0,1.0312-1.0312v-4.125h2.0626A1.0306,1.0306,0,0,0,16.5,10.3125V5.1562A1.0312,1.0312,0,0,0,15.4689,4.1251Zm-3.094,11.3437h-8.25V8.25h8.25Zm2.0626-8.25a1.0313,1.0313,0,1,1,1.0314-1.0313A1.0306,1.0306,0,0,1,14.4375,7.2188Z" />
      <rect class="cls-1" x="5.1563" y="9.2812" width="4.1249" height="1.0312" />
      <rect class="cls-1" x="5.1563" y="11.3438" width="6.1875" height="1.0311" />
      <rect class="cls-1" x="5.1563" y="13.4063" width="6.1875" height="1.0311" />
    </g>
  </g>
</svg>
