<?xml version="1.0" encoding="utf-8"?>
<!-- Generator: Adobe Illustrator 19.0.0, SVG Export Plug-In . SVG Version: 6.00 Build 0)  -->
<svg version="1.1" id="Capa_1" xmlns="http://www.w3.org/2000/svg" xmlns:xlink="http://www.w3.org/1999/xlink" x="0px" y="0px"
	 viewBox="-298.9 392 10.9 10" style="enable-background:new -298.9 392 10.9 10; fill: #FFF;" xml:space="preserve">
<title>flecha</title>
<path d="M-289.1,394h-8.6c-0.5,0-1-0.4-1-1s0.4-1,1-1h8.6c0.5,0,1,0.4,1,1S-288.6,394-289.1,394z"/>
<path d="M-289.1,398h-8.6c-0.5,0-1-0.4-1-1s0.4-1,1-1h8.6c0.5,0,1,0.4,1,1S-288.6,398-289.1,398z"/>
<path d="M-289.1,402h-8.6c-0.5,0-1-0.4-1-1s0.4-1,1-1h8.6c0.5,0,1,0.4,1,1S-288.6,402-289.1,402z"/>
</svg>
