<!-- Generator: Adobe Illustrator 22.0.1, SVG Export Plug-In  -->
<svg version="1.1"
	 xmlns="http://www.w3.org/2000/svg" xmlns:xlink="http://www.w3.org/1999/xlink" xmlns:a="http://ns.adobe.com/AdobeSVGViewerExtensions/3.0/"
	 x="0px" y="0px" width="15px" height="13.5px" viewBox="0 0 15 13.5" style="enable-background:new 0 0 15 13.5;"
	 xml:space="preserve">
<style type="text/css">
	.st0{fill:#FFFFFF;}
</style>
<defs>
</defs>
<g>
	<path class="st0" d="M14,2H1C0.4,2,0,1.6,0,1l0,0c0-0.6,0.4-1,1-1h13c0.6,0,1,0.4,1,1l0,0C15,1.6,14.6,2,14,2z"/>
	<path class="st0" d="M11,7.8H1c-0.6,0-1-0.4-1-1l0,0c0-0.6,0.4-1,1-1h10c0.6,0,1,0.4,1,1l0,0C12,7.3,11.6,7.8,11,7.8z"/>
	<path class="st0" d="M13.8,13.5H1c-0.6,0-1-0.4-1-1l0,0c0-0.6,0.4-1,1-1h12.8c0.6,0,1,0.4,1,1l0,0C14.8,13.1,14.4,13.5,13.8,13.5z"
		/>
</g>
</svg>
