<svg xmlns="http://www.w3.org/2000/svg" width="19.25" height="19.25" viewBox="0 0 19.25 19.25"><defs><style>.cls-1{fill:#fff;}</style></defs><title>new</title><g id="Capa_2" data-name="Capa 2"><g id="Capa_1-2" data-name="Capa 1"><polygon class="cls-1" points="10.318 6.277 8.932 6.277 8.932 8.599 6.611 8.599 6.611 9.984 8.932 9.984 8.932 12.306 10.318 12.306 10.318 9.984 12.64 9.984 12.64 8.599 10.318 8.599 10.318 6.277"/><path class="cls-1" d="M9.625,0A9.625,9.625,0,1,0,19.25,9.625,9.6354,9.6354,0,0,0,9.625,0Zm0,18A8.375,8.375,0,1,1,18,9.625,8.3842,8.3842,0,0,1,9.625,18Z"/></g></g></svg>