<svg xmlns="http://www.w3.org/2000/svg" width="12.0449" height="15.6973" viewBox="0 0 12.0449 15.6973"><defs><style>.cls-1{fill:#FFF;}</style></defs><title>save</title><g id="Capa_2" data-name="Capa 2"><g id="Capa_1-2" data-name="Capa 1"><path class="cls-1" d="M10.73,15.6963a1.3167,1.3167,0,0,1-.6924-.1963L6.0225,13.01,2.0088,15.499A1.3152,1.3152,0,0,1,0,14.3809V1.665A1.6663,1.6663,0,0,1,1.6641,0H10.38a1.6671,1.6671,0,0,1,1.665,1.665V14.3809A1.3141,1.3141,0,0,1,10.73,15.6963ZM6.0234,10.8887a1.3142,1.3142,0,0,1,.69.1963l.0029.0019,3.3291,2.0645V2H2V13.1514l3.3291-2.0645A1.318,1.318,0,0,1,6.0234,10.8887Z"/></g></g></svg>