<?xml version="1.0" encoding="utf-8"?>
<!-- Generator: Adobe Illustrator 22.0.1, SVG Export Plug-In . SVG Version: 6.00 Build 0)  -->
<svg version="1.1" id="Capa_1" xmlns="http://www.w3.org/2000/svg" xmlns:xlink="http://www.w3.org/1999/xlink" x="0px" y="0px"
	 viewBox="0 0 17 17" style="enable-background:new 0 0 17 17;" xml:space="preserve">
<style type="text/css">
	.st0{fill:#FFF;}
</style>
<title>Fill 1</title>
<desc>Created with Sketch.</desc>
<path class="st0" d="M16.1,14.9l-3.6-3.6c1-1.2,1.5-2.6,1.5-4.1c0-3.6-3-6.6-6.7-6.6c-3.7,0-6.7,2.9-6.7,6.6s3,6.6,6.7,6.6
	c1.4,0,2.8-0.5,3.9-1.3l3.7,3.6c0.2,0.2,0.4,0.2,0.6,0.2c0.2,0,0.4-0.1,0.6-0.2c0.2-0.2,0.2-0.4,0.2-0.6
	C16.4,15.3,16.3,15.1,16.1,14.9z M12.3,7.2c0,2.7-2.2,4.9-5,4.9s-5-2.2-5-4.9s2.2-4.9,5-4.9S12.3,4.5,12.3,7.2z"/>
</svg>
