<?xml version="1.0" encoding="utf-8"?>
<!-- Generator: Adobe Illustrator 22.0.1, SVG Export Plug-In . SVG Version: 6.00 Build 0)  -->
<svg version="1.1" id="Capa_1" xmlns="http://www.w3.org/2000/svg" xmlns:xlink="http://www.w3.org/1999/xlink" x="0px" y="0px"
	 viewBox="0 0 512 512" style="enable-background:new 0 0 512 512;" xml:space="preserve">
<style type="text/css">
	.st0{fill:#FFFFFF;}
</style>
<g>
	<g>
		<path class="st0" d="M512,304c0-12.8-5.1-24.8-13.9-33.6c10-10.9,15-25.5,13.7-40.7c-2.5-27.1-26.9-48.4-55.6-48.4H324.4
			c6.5-19.8,17-56.1,17-85.3c0-46.3-39.3-85.3-64-85.3c-22.1,0-38,12.5-38.7,13c-2.5,2-4,5.1-4,8.3v72.3l-61.5,133.1l-2.5,1.3v-4.1
			c0-5.9-4.8-10.7-10.7-10.7H53.3C23.9,224,0,247.9,0,277.3V448c0,29.4,23.9,53.3,53.3,53.3h64c23.1,0,42.8-14.7,50.2-35.3
			c17.8,9.1,41.6,13.9,56.5,13.9h195.8c23.2,0,43.6-15.7,48.3-37.2c2.5-11.1,1-22.3-3.8-32.1c15.7-7.9,26.3-24.2,26.3-42.7
			c0-7.6-1.7-14.8-5-21.3C501.4,338.8,512,322.5,512,304z M467,330.3c-4.1,0.5-7.6,3.3-8.9,7.2c-1.3,3.9-0.2,8.3,2.8,11.1
			c5.4,5.1,8.4,12,8.4,19.3c0,13.5-10.2,24.8-23.6,26.3c-4.1,0.5-7.6,3.3-8.9,7.2c-1.3,3.9-0.2,8.3,2.8,11.1
			c7,6.6,9.8,15.9,7.7,25.5c-2.6,11.9-14.2,20.5-27.5,20.5H224c-17.3,0-46.4-8.1-56.4-18.2c-3.1-3-7.7-3.9-11.6-2.3
			c-4,1.6-6.6,5.5-6.6,9.9c0,17.6-14.4,32-32,32h-64c-17.6,0-32-14.4-32-32V277.3c0-17.6,14.4-32,32-32h96V256
			c0,3.7,1.9,7.1,5.1,9.1c3.1,1.9,7,2.1,10.4,0.4l21.3-10.7c2.2-1.1,3.9-2.9,4.9-5.1l64-138.7c0.6-1.4,1-2.9,1-4.5V37.8
			c4.4-2.5,12.1-5.8,21.3-5.8C289,32,320,61.1,320,96c0,37.5-20.4,91.7-20.6,92.2c-1.2,3.3-0.8,7,1.2,9.9c2,2.9,5.3,4.6,8.8,4.6
			h146.8c17.8,0,32.9,12.7,34.4,29c1.1,12.2-4.7,23.7-15.2,30.2c-3.3,2-5.2,5.6-5.1,9.5s2.4,7.3,5.8,9.1c9,4.6,14.6,13.6,14.6,23.6
			C490.7,317.5,480.5,328.8,467,330.3z"/>
	</g>
</g>
<g>
	<g>
		<path class="st0" d="M160,245.3c-5.9,0-10.7,4.8-10.7,10.7v192c0,5.9,4.8,10.7,10.7,10.7s10.7-4.8,10.7-10.7V256
			C170.7,250.1,165.9,245.3,160,245.3z"/>
	</g>
</g>
</svg>
