<svg xmlns="http://www.w3.org/2000/svg" width="28.4116" height="28.4116" viewBox="0 0 28.4116 28.4116"><defs><style>.cls-1{fill:#9c9ea2;}</style></defs><title>Recurso 3</title><g id="Capa_2" data-name="Capa 2"><g id="Capa_1-2" data-name="Capa 1"><path class="cls-1" d="M25.2547,0H19.7034c-.8728,0-2.3408.6708-2.3408,1.5421A1.9378,1.9378,0,0,0,19.2551,3.171l2.4214.0648a.7931.7931,0,0,1,.5413,1.3526l-9.1343,9.18A1.5782,1.5782,0,0,0,13.1072,16a1.6047,1.6047,0,0,0,2.2539,0L24.54,6.822a.7945.7945,0,0,1,1.3559.5382l.06,2.1561a1.5651,1.5651,0,0,0,1.4316,1.5146c.7451-.0735,1.0244-.791,1.0244-1.6046V3.1569A3.1662,3.1662,0,0,0,25.2547,0Z"/><path class="cls-1" d="M23.6763,15.7842a1.5784,1.5784,0,0,0-1.5784,1.5784v6.3137A1.5784,1.5784,0,0,1,20.52,25.2547H4.7352a1.5783,1.5783,0,0,1-1.5783-1.5784V7.8921A1.5783,1.5783,0,0,1,4.7352,6.3137H11.049a1.5784,1.5784,0,1,0,0-3.1568H3.1569A3.1568,3.1568,0,0,0,0,6.3137v18.941a3.1568,3.1568,0,0,0,3.1569,3.1569h18.941a3.1568,3.1568,0,0,0,3.1568-3.1569V17.3626A1.5784,1.5784,0,0,0,23.6763,15.7842Z"/></g></g></svg>