<svg xmlns="http://www.w3.org/2000/svg" width="16.6716" height="10.3691" viewBox="0 0 16.6716 10.3691"><defs><style>.cls-1{fill:#595959;}</style></defs><title>Recurso 14</title><g id="Capa_2" data-name="Capa 2"><g id="Capa_1-2" data-name="Capa 1"><path class="cls-1" d="M16.5788,4.9085C16.4288,4.7077,12.8557,0,8.3358,0S.2428,4.7077.0928,4.9085a.4569.4569,0,0,0,0,.552c.1491.2009,3.7026,4.9086,8.243,4.9086,4.52,0,8.093-4.7077,8.243-4.9086A.4569.4569,0,0,0,16.5788,4.9085Zm-.9919.3179c-.8321.9913-3.8143,4.224-7.2511,4.224S1.9169,6.2177,1.0847,5.2264l-.0354-.0419.0354-.0418C1.9169,4.1514,4.899.9186,8.3358.9186s6.419,3.2328,7.2511,4.2241l.0355.0418Z"/><path class="cls-1" d="M8.3358,2.6251a2.5594,2.5594,0,1,0,2.56,2.5594A2.5622,2.5622,0,0,0,8.3358,2.6251Zm0,4.2A1.6408,1.6408,0,1,1,9.9765,5.1845,1.6424,1.6424,0,0,1,8.3358,6.8253Z"/></g></g></svg>