<?xml version="1.0" encoding="iso-8859-1"?>
<!-- Generator: Adobe Illustrator 19.0.0, SVG Export Plug-In . SVG Version: 6.00 Build 0)  -->
<svg version="1.1" id="Layer_1" xmlns="http://www.w3.org/2000/svg" xmlns:xlink="http://www.w3.org/1999/xlink" x="0px" y="0px"
	 viewBox="0 0 512 512" style="enable-background:new 0 0 512 512;fill: #FFFFFF" xml:space="preserve">
<g>
	<g>
		<path d="M256,300.866c-16.007,0-29.031,13.024-29.031,29.031s13.024,29.031,29.031,29.031s29.031-13.024,29.031-29.031
			S272.007,300.866,256,300.866z M256,343.093c-7.277,0-13.196-5.919-13.196-13.196s5.919-13.196,13.196-13.196
			s13.196,5.919,13.196,13.196S263.277,343.093,256,343.093z"/>
	</g>
</g>
<g>
	<g>
		<path d="M493.526,0H18.474C8.288,0,0,8.288,0,18.474v358.928c0,10.186,8.288,18.474,18.474,18.474h150.433v58.062h-24.655
			L129.737,512h252.528l-14.516-58.062h-24.656v-58.062h150.433c10.186,0,18.474-8.288,18.474-18.474V18.474
			C512,8.288,503.712,0,493.526,0z M355.385,469.773l6.599,26.392H150.016l6.598-26.392H355.385z M184.742,453.938v-58.062h142.516
			v58.062H184.742z M496.165,377.402c0,1.43-1.209,2.639-2.639,2.639H18.474c-1.43,0-2.639-1.209-2.639-2.639v-92.371h480.33
			V377.402z M248.082,79.175v190.021h-15.835v-99.274L192.66,77.551l-39.588,92.371v99.274H52.784V52.784h406.433v216.412H358.928
			V79.175H248.082z M263.918,226.969v-36.948h44.866v-15.835h-44.866v-36.948h29.031v-15.835h-29.031V95.01h79.175v174.186h-79.175
			v-26.392h29.031v-15.835H263.918z M172.997,163.629l19.663-45.88l19.663,45.88H172.997z M184.742,179.464v89.732h-15.835v-89.732
			H184.742z M200.577,179.464h15.835v89.732h-15.835V179.464z M496.165,269.196h-21.113V36.948H36.948v232.247H15.835V18.474
			c0-1.43,1.209-2.639,2.639-2.639h475.052c1.43,0,2.639,1.209,2.639,2.639V269.196z"/>
	</g>
</g>
<g>
	<g>
		<polygon points="73.897,79.175 73.897,176.825 89.732,176.825 89.732,95.01 129.32,95.01 129.32,79.175 		"/>
	</g>
</g>
<g>
	<g>
		<rect x="73.897" y="192.66" width="15.835" height="21.113"/>
	</g>
</g>
<g>
	<g>
		<polygon points="422.268,203.216 422.268,232.247 382.68,232.247 382.68,248.082 438.103,248.082 438.103,203.216 		"/>
	</g>
</g>
<g>
</g>
<g>
</g>
<g>
</g>
<g>
</g>
<g>
</g>
<g>
</g>
<g>
</g>
<g>
</g>
<g>
</g>
<g>
</g>
<g>
</g>
<g>
</g>
<g>
</g>
<g>
</g>
<g>
</g>
</svg>
