<svg xmlns="http://www.w3.org/2000/svg" width="146" height="146" viewBox="0 0 146 146"><defs><style>.cls-1{fill:#9c9ea2;}</style></defs><title>add image</title><g id="Capa_2" data-name="Capa 2"><g id="Capa_1-2" data-name="Capa 1"><path class="cls-1" d="M29.2,80.3a7.3029,7.3029,0,0,0,7.3,7.3h73a7.3,7.3,0,0,0,0-14.6h-73A7.3027,7.3027,0,0,0,29.2,80.3Z"/><path class="cls-1" d="M109.5,102.2h-73a7.3,7.3,0,1,0,0,14.6h73a7.3,7.3,0,1,0,0-14.6Z"/><path class="cls-1" d="M143.8611,41.6611,104.3389,2.1387A7.2943,7.2943,0,0,0,99.1777,0H14.6A14.5961,14.5961,0,0,0,0,14.6V131.4A14.6008,14.6008,0,0,0,14.6,146H131.4A14.6008,14.6008,0,0,0,146,131.4V46.8223A7.2942,7.2942,0,0,0,143.8611,41.6611ZM131.4,124.1a7.3026,7.3026,0,0,1-7.3,7.3H21.9a7.3026,7.3026,0,0,1-7.3-7.3V21.9a7.3023,7.3023,0,0,1,7.3-7.3H87.6V43.8a14.6,14.6,0,0,0,14.6,14.6h29.2Z"/></g></g></svg>