<?xml version="1.0" encoding="UTF-8"?>
<svg width="15px" height="12px" viewBox="0 0 15 12" version="1.1" xmlns="http://www.w3.org/2000/svg" xmlns:xlink="http://www.w3.org/1999/xlink">
    <!-- Generator: Sketch 59 (86127) - https://sketch.com -->
    <title>Fill 7</title>
    <desc>Created with Sketch.</desc>
    <g id="brief" stroke="none" stroke-width="1" fill="none" fill-rule="evenodd">
        <g id="client---my-projects" transform="translate(-407.000000, -493.000000)" fill="#fff">
            <g id="Group" transform="translate(400.000000, 483.000000)">
                <path d="M8.59153846,17.1086538 L8.56961538,17.1040385 L17.865,17.1040385 L14.9434615,20.0325 C14.8003846,20.1755769 14.7207692,20.3694231 14.7207692,20.5725 C14.7207692,20.7767308 14.8003846,20.9694231 14.9434615,21.1125 L15.3969231,21.5659615 C15.54,21.7090385 15.7303846,21.7886538 15.9346154,21.7886538 C16.1376923,21.7886538 16.3280769,21.7101923 16.4711538,21.5671154 L21.4811538,16.5582692 C21.6242308,16.4140385 21.7026923,16.2236538 21.701551,16.0205769 C21.7026923,15.8163462 21.6242308,15.6248077 21.4811538,15.4817308 L16.4711538,10.4717308 C16.3280769,10.3286538 16.1376923,10.2501923 15.9346154,10.2501923 C15.7303846,10.2501923 15.54,10.3286538 15.3969231,10.4717308 L14.9434615,10.9275 C14.8003846,11.0694231 14.7207692,11.2609615 14.7207692,11.4628846 C14.7207692,11.6659615 14.8003846,11.8471154 14.9434615,11.9890385 L17.8984615,14.9348077 L8.58115385,14.9348077 C8.16230769,14.9348077 7.81038462,15.2959615 7.81038462,15.7148077 L7.81038462,16.3586538 C7.81038462,16.7763462 8.17269231,17.1086538 8.59153846,17.1086538" id="Fill-7"></path>
            </g>
        </g>
    </g>
</svg>