<svg xmlns="http://www.w3.org/2000/svg" width="14.1247" height="15.1461" viewBox="0 0 14.1247 15.1461"><defs><style>.cls-1{fill:#595959;}</style></defs><title>Recurso 15</title><g id="Capa_2" data-name="Capa 2"><g id="Capa_1-2" data-name="Capa 1"><path class="cls-1" d="M0,2.4688V4.51a.4269.4269,0,0,0,.4264.4264h.6378l.982,9.8248a.4261.4261,0,0,0,.4254.3846h9.1862a.426.426,0,0,0,.4256-.3846l.98-9.8248h.6352a.4269.4269,0,0,0,.4264-.4264V2.4688a.4271.4271,0,0,0-.4264-.4273H8.3791l.0419-.1128a1.4253,1.4253,0,0,0,.0886-.482,1.4474,1.4474,0,0,0-2.8948.0009,1.4278,1.4278,0,0,0,.0889.4811l.0419.1128H.4264A.4271.4271,0,0,0,0,2.4688ZM11.273,14.2924H2.854L1.9187,4.9367h10.29ZM7.0622.8537a.5939.5939,0,1,1-.5943.5939A.5949.5949,0,0,1,7.0622.8537ZM.8529,2.8952H13.2716V4.0839H.8529Z"/><path class="cls-1" d="M7.0622,7.1466a.4269.4269,0,0,0-.4264.4264v4.0839a.4266.4266,0,0,0,.8531,0V7.573A.4271.4271,0,0,0,7.0622,7.1466Z"/><path class="cls-1" d="M9.1911,7.5183l-.5105,4.0856a.4264.4264,0,0,0,.8462.106l.51-4.0839a.4266.4266,0,1,0-.8461-.1077Z"/><path class="cls-1" d="M4.0876,7.6277l.51,4.0822a.4265.4265,0,0,0,.8463-.106L4.9338,7.52a.4231.4231,0,0,0-.42-.3614.3858.3858,0,0,0-.0544.0034A.4247.4247,0,0,0,4.0876,7.6277Z"/></g></g></svg>