<?xml version="1.0" encoding="utf-8"?>
<!-- Generator: Adobe Illustrator 24.1.3, SVG Export Plug-In . SVG Version: 6.00 Build 0)  -->
<svg version="1.1" id="Capa_1" xmlns="http://www.w3.org/2000/svg" xmlns:xlink="http://www.w3.org/1999/xlink" x="0px" y="0px"
	 viewBox="0 0 330 330" style="enable-background:new 0 0 330 330;" xml:space="preserve">
<style type="text/css">
	.st0{fill:#286e3e;}
	.st1{fill:#d6eddb;}
</style>
<g>
	<path class="st0" d="M165,0C74,0,0,74,0,165s74,165,165,165s165-74,165-165S256,0,165,0z"/>
	<path class="st1" d="M226.9,106.7L142,191.5l-38.9-38.9c-5.9-5.9-15.4-5.9-21.2,0c-5.9,5.9-5.9,15.4,0,21.2l49.5,49.5
		c2.8,2.8,6.6,4.4,10.6,4.4c0,0,0,0,0,0c4,0,7.8-1.6,10.6-4.4l95.5-95.5c5.9-5.9,5.9-15.4,0-21.2
		C242.2,100.8,232.7,100.8,226.9,106.7z"/>
</g>
</svg>
