<svg xmlns="http://www.w3.org/2000/svg" width="14.5" height="14.2" viewBox="0 0 14.5 14.2"><defs><style>.cls-1{fill:#fff;}</style></defs><title>comment</title><g id="Capa_2" data-name="Capa 2"><g id="Capa_1-2" data-name="Capa 1"><path class="cls-1" d="M14.3,2.6A3.8827,3.8827,0,0,0,10.7,0H3.9A3.9558,3.9558,0,0,0,.1,3.4a.0979.0979,0,0,0-.1.1V14.2a.3491.3491,0,0,1,.2-.1c1.1-.5,2.3-1.1,3.5-1.6.2,0,.4-.1.6-.1h6.1a3.65,3.65,0,0,0,3.5-2.1,5.7825,5.7825,0,0,0,.5-1.4c0-.7,0-4.5.1-5.3A3.553,3.553,0,0,0,14.3,2.6Zm-.9,6.7a3.1242,3.1242,0,0,1-3.1,2.3H4.1a1.2679,1.2679,0,0,0-.6.1L.8,12.9V4.1A3.0525,3.0525,0,0,1,3.9,1h6.5a3.0951,3.0951,0,0,1,3.1,3A46.8791,46.8791,0,0,1,13.4,9.3Z"/><circle class="cls-1" cx="5.2333" cy="6.2948" r="0.6875"/><circle class="cls-1" cx="7.25" cy="6.2948" r="0.6875"/><circle class="cls-1" cx="9.2667" cy="6.2948" r="0.6875"/></g></g></svg>