<svg xmlns="http://www.w3.org/2000/svg" width="471.2" height="436.7" viewBox="0 0 471.2 436.7"><defs><style>.cls-1{fill:#FFF;}</style></defs><title>Recurso 1</title><g id="Capa_2" data-name="Capa 2"><g id="Capa_1-2" data-name="Capa 1"><path class="cls-1" d="M457.7,212.9a13.4439,13.4439,0,0,0-13.5,13.5V349.2a60.5811,60.5811,0,0,1-60.5,60.5H87.5A60.5811,60.5811,0,0,1,27,349.2V224.4a13.5,13.5,0,0,0-27,0V349.2a87.5961,87.5961,0,0,0,87.5,87.5H383.7a87.5961,87.5961,0,0,0,87.5-87.5V226.4A13.5074,13.5074,0,0,0,457.7,212.9Z"/><path class="cls-1" d="M226.1,329.5a13.5876,13.5876,0,0,0,9.5,4,13.1728,13.1728,0,0,0,9.5-4l85.8-85.8a13.5057,13.5057,0,1,0-19.1-19.1l-62.7,62.8V13.5a13.5,13.5,0,0,0-27,0V287.4l-62.8-62.8a13.5057,13.5057,0,1,0-19.1,19.1Z"/></g></g></svg>