<?xml version="1.0" encoding="utf-8"?>
<!-- Generator: Adobe Illustrator 19.0.0, SVG Export Plug-In . SVG Version: 6.00 Build 0)  -->
<svg version="1.1" id="Capa_1" xmlns="http://www.w3.org/2000/svg" xmlns:xlink="http://www.w3.org/1999/xlink" x="0px" y="0px"
	 viewBox="-297 389.5 18.4 17.1" style="enable-background:new -297 389.5 18.4 17.1;" xml:space="preserve">
<style type="text/css">
	.st0{fill:#FFFFFF;}
</style>
<g>
	<path class="st0" d="M-279.7,393.2h-16.3c-0.6,0-1-0.4-1-1s0.4-1,1-1h16.3c0.6,0,1,0.4,1,1S-279.1,393.2-279.7,393.2z"/>
	<path class="st0" d="M-279.7,399.2h-16.3c-0.6,0-1-0.4-1-1c0-0.6,0.4-1,1-1h16.3c0.6,0,1,0.4,1,1
		C-278.7,398.7-279.1,399.2-279.7,399.2z"/>
	<path class="st0" d="M-279.7,405h-16.3c-0.6,0-1-0.4-1-1s0.4-1,1-1h16.3c0.6,0,1,0.4,1,1S-279.1,405-279.7,405z"/>
	<circle class="st0" cx="-292.4" cy="392.2" r="2.4"/>
	<circle class="st0" cx="-283" cy="398.2" r="2.4"/>
	<circle class="st0" cx="-287.9" cy="404" r="2.4"/>
</g>
</svg>
