<svg xmlns="http://www.w3.org/2000/svg" width="31.6692" height="33" viewBox="0 0 31.6692 33"><defs><style>.cls-1{fill:#FFF;}</style></defs><title>light</title><g id="Capa_2" data-name="Capa 2"><g id="Design"><path id="_Trazado_compuesto_" data-name="&lt;Trazado compuesto&gt;" class="cls-1" d="M19.5964,28.8376v.9642a1.5293,1.5293,0,0,1-1.297,1.5142l-.2376.8759A1.09,1.09,0,0,1,17.0093,33H14.6531a1.09,1.09,0,0,1-1.0525-.8081L13.37,31.316a1.536,1.536,0,0,1-1.3037-1.5209v-.9643a.9273.9273,0,0,1,.93-.93h5.67A.9376.9376,0,0,1,19.5964,28.8376Zm4.366-12.9962a8.0892,8.0892,0,0,1-2.2815,5.6426,7.4552,7.4552,0,0,0-1.9963,4.0468,1.3441,1.3441,0,0,1-1.3308,1.134H13.3086a1.3311,1.3311,0,0,1-1.324-1.1272,7.5377,7.5377,0,0,0-2.01-4.06,8.1289,8.1289,0,1,1,13.9877-5.6358Zm-7.2111-4.9228a.9172.9172,0,0,0-.9167-.9167,5.8726,5.8726,0,0,0-5.8667,5.8666.9167.9167,0,1,0,1.8334,0,4.0381,4.0381,0,0,1,4.0333-4.0333A.9128.9128,0,0,0,16.7513,10.9186Zm-.9167-5.8735a.9172.9172,0,0,0,.9167-.9167V.9167a.9167.9167,0,0,0-1.8334,0V4.1284A.9172.9172,0,0,0,15.8346,5.0451ZM5.0451,15.8346a.9171.9171,0,0,0-.9166-.9166H.9167a.9166.9166,0,1,0,0,1.8332H4.1285A.9128.9128,0,0,0,5.0451,15.8346Zm25.7074-.9166H27.5407a.9166.9166,0,0,0,0,1.8332h3.2118a.9166.9166,0,1,0,0-1.8332Zm-23.84,8.5487L4.6377,25.7414a.9146.9146,0,0,0,1.29,1.2968l2.2747-2.2746a.9146.9146,0,1,0-1.29-1.2969ZM24.1117,8.4741a.9155.9155,0,0,0,.6451-.2648l2.2747-2.2747a.917.917,0,1,0-1.2969-1.2969L23.46,6.9123a.914.914,0,0,0,0,1.297A.9313.9313,0,0,0,24.1117,8.4741ZM6.9124,8.2025a.9146.9146,0,1,0,1.29-1.2969L5.9278,4.6308a.9171.9171,0,0,0-1.2969,1.297ZM24.7568,23.4667A.917.917,0,0,0,23.46,24.7636l2.2747,2.2746a.9146.9146,0,1,0,1.29-1.2968Z"/></g></g></svg>