<svg version="1.1"
   xmlns="http://www.w3.org/2000/svg" xmlns:xlink="http://www.w3.org/1999/xlink" xmlns:a="http://ns.adobe.com/AdobeSVGViewerExtensions/3.0/"
   x="0px" y="0px" width="16px" height="20px" viewBox="0 0 16 20" style="enable-background:new 0 0 16 20;" xml:space="preserve">
<style type="text/css">
  .st0{fill:none;}
  .st1{fill:#9C9EA2;}
</style>
<defs>
</defs>
<g>
  <g>
    <path class="st0" d="M8,4L8,4C6,4,4,5.3,4,8v6h8V8C12,5.3,10,4,8,4z"/>
    <path class="st0" d="M7,17c0,0.6,0.4,1,1,1s1-0.4,1-1v-1H7V17z"/>
    <path class="st1" d="M15,14h-1V8c0-3.6-2.4-5.5-5-5.9V0H7v2.1C4.4,2.5,2,4.4,2,8v6H1c-0.6,0-1,0.4-1,1s0.4,1,1,1h4v1
      c0,1.7,1.3,3,3,3s3-1.3,3-3v-1h4c0.6,0,1-0.4,1-1S15.6,14,15,14z M9,17c0,0.6-0.4,1-1,1s-1-0.4-1-1v-1h2V17z M12,14H4V8
      c0-2.7,2-4,4-4h0c2,0,4,1.3,4,4V14z"/>
  </g>
</g>
</svg>