<svg xmlns="http://www.w3.org/2000/svg" viewBox="0 0 224.7 433"><defs><style>.cls-1{fill:#FFF;}</style></defs><title>order az</title><g id="Capa_2" data-name="Capa 2"><g id="Capa_1-2" data-name="Capa 1"><path class="cls-1" d="M214.41,88.43l-78.88-79a32,32,0,0,0-45.25,0l0,0-80,80a33.12,33.12,0,0,0-4.64,42.4,32,32,0,0,0,48,4.16l10.88-10.88A47.92,47.92,0,0,0,76,106.51l4.32-9.92V398.83a33.13,33.13,0,0,0,26.88,33.76,32,32,0,0,0,36.71-26.47,31.07,31.07,0,0,0,.41-5.53v-304l3.2,9.12a48.16,48.16,0,0,0,11.36,17.92l11.52,11.52a32,32,0,0,0,45.26,0c.62-.62,1.21-1.26,1.78-1.93A33.28,33.28,0,0,0,214.41,88.43Z"/></g></g></svg>