<svg xmlns="http://www.w3.org/2000/svg" width="483.3003" height="367.8" viewBox="0 0 483.3003 367.8"><defs><style>.cls-1{fill:gray;}</style></defs><title>Recurso 1</title><g id="Capa_2" data-name="Capa 2"><g id="Capa_1-2" data-name="Capa 1"><path class="cls-1" d="M424.3,0H59.1A59.1513,59.1513,0,0,0,0,59.1V308.7a59.1513,59.1513,0,0,0,59.1,59.1H424.2a59.1513,59.1513,0,0,0,59.1-59.1V59.2A59.0873,59.0873,0,0,0,424.3,0Zm32.1,308.7a32.1364,32.1364,0,0,1-32.1,32.1H59.1A32.1364,32.1364,0,0,1,27,308.7V59.2A32.1364,32.1364,0,0,1,59.1,27.1H424.2a32.1364,32.1364,0,0,1,32.1,32.1V308.7Z"/><path class="cls-1" d="M304.8,180.8,423,74.8a13.5242,13.5242,0,0,0-18.1-20.1L241.9,201l-31.8-28.4c-.1-.1-.2-.2-.2-.3a19.9964,19.9964,0,0,0-2.2-1.9L78.3,54.6a13.5281,13.5281,0,0,0-18,20.2L179.9,181.7,60.8,293.2a13.5546,13.5546,0,0,0-.6,19.1,13.8122,13.8122,0,0,0,9.9,4.3,13.5287,13.5287,0,0,0,9.2-3.6L200.2,199.9,233,229.2a13.4646,13.4646,0,0,0,18-.1l33.7-30.2L404.9,313.1a13.5355,13.5355,0,0,0,19.1-.5,13.5541,13.5541,0,0,0-.5-19.1Z"/></g></g></svg>