<svg xmlns="http://www.w3.org/2000/svg" width="15.5454" height="32.7641" viewBox="0 0 15.5454 32.7641"><defs><style>.cls-1{fill:#FFF;}</style></defs><title>temperature</title><g id="Capa_2" data-name="Capa 2"><g id="Design"><path class="cls-1" d="M13.3624,19.5969V5.5837A5.5869,5.5869,0,0,0,2.1887,5.5829V19.5962A7.6941,7.6941,0,0,0,0,24.994a7.7727,7.7727,0,0,0,15.5454,0A7.6905,7.6905,0,0,0,13.3624,19.5969ZM7.77,30.6128A5.6216,5.6216,0,0,1,2.155,24.9954a5.5381,5.5381,0,0,1,2.208-4.457V11.6517h2.42a.7332.7332,0,0,0,0-1.4661H4.363V8.416h2.42a.7076.7076,0,1,0,0-1.4151H4.363V5.5829a3.4122,3.4122,0,1,1,6.8244.0008V20.5606a5.4969,5.4969,0,0,1,2.1865,4.4348A5.613,5.613,0,0,1,7.77,30.6128Z"/><path class="cls-1" d="M9.57,21.86V13.37H5.9805v8.49a3.5682,3.5682,0,0,0-1.82,3.1352,3.6138,3.6138,0,1,0,7.2276,0A3.5639,3.5639,0,0,0,9.57,21.86Z"/></g></g></svg>