<svg xmlns="http://www.w3.org/2000/svg" width="28.2064mm" height="21.1513mm" viewBox="0 0 79.9553 59.9564"><defs><style>.cls-1{fill:#FFF;}</style></defs><title>upload amarillo</title><g id="Capa_2" data-name="Capa 2"><g id="Layer_1" data-name="Layer 1"><path class="cls-1" d="M49.9713,53.3023V46.8312c.9233,0,1.7909.0171,2.6575-.0028,4.2683-.0981,8.5828.1479,12.7923-.4041a9.3888,9.3888,0,0,0,7.8346-9.7871c-.2439-5.3128-3.762-9.2031-8.823-9.7564-3.7776-.413-3.7776-.413-4.6525-4.0776C57.4077,12.8663,49.7658,6.4584,40.023,6.5976a19.7155,19.7155,0,0,0-17.49,10.1375,7.0065,7.0065,0,0,1-5.1,3.7025c-7.35,1.4618-11.41,7.2772-10.6544,14.85.6342,6.3565,6.6659,11.5169,13.5042,11.5416,3.1446.0114,6.2893.002,9.5715.002v6.2677c-.0447.04-.1318.1854-.2155.1834-4.621-.1083-9.326.2844-13.8447-.4568C6.7891,51.3485.1575,42.9462.0027,33.6845a20.2468,20.2468,0,0,1,15.044-19.6968,4.2919,4.2919,0,0,0,2.34-1.5452C23.69,3.0508,32.5914-1.14,43.6441.2656c10.9579,1.3935,18.28,7.8632,21.9665,18.2915a2.9025,2.9025,0,0,0,2.3172,2.1812c7.9618,1.9967,12.77,9.1586,11.9334,17.6128-.8043,8.1258-7.3447,14.6068-15.3146,14.9169C59.75,53.4546,54.941,53.3023,49.9713,53.3023Z"/><path class="cls-1" d="M40.1182,19.0146,53.3436,36.5838H43.5289V59.9564H36.8118V36.6824H26.8262Z"/></g></g></svg>