<svg version="1.1"
   xmlns="http://www.w3.org/2000/svg" xmlns:xlink="http://www.w3.org/1999/xlink" xmlns:a="http://ns.adobe.com/AdobeSVGViewerExtensions/3.0/"
   x="0px" y="0px" width="512px" height="512px" viewBox="0 0 512 512" style="enable-background:new 0 0 512 512;"
   xml:space="preserve">
<style type="text/css">
  .st0{fill:#DBDBDB;}
</style>
<defs>
</defs>
<g>
  <circle class="st0" cx="256" cy="205.6" r="80.2"/>
  <path class="st0" d="M121.7,341.4c20.7-20.7,45.3-36,72.2-45.3c-28.8-19.8-47.7-53-47.7-90.5c0-60.6,49.3-109.8,109.8-109.8
    S365.8,145,365.8,205.6c0,37.5-18.9,70.7-47.7,90.5c26.9,9.3,51.5,24.6,72.2,45.3c25.5,25.5,42.9,57.1,50.8,91.4
    C485,386.8,512,324.6,512,256C512,114.6,397.4,0,256,0S0,114.6,0,256c0,68.6,27,130.8,70.9,176.8
    C78.7,398.4,96.1,366.9,121.7,341.4z"/>
  <path class="st0" d="M256,315.4c-81.9,0-149.6,61.7-159.2,141.1c43.7,34.7,99,55.5,159.2,55.5s115.5-20.8,159.2-55.5
    C405.6,377.1,337.9,315.4,256,315.4z"/>
</g>
</svg>