<?xml version="1.0" encoding="utf-8"?>
<!-- Generator: Adobe Illustrator 24.1.3, SVG Export Plug-In . SVG Version: 6.00 Build 0)  -->
<svg version="1.1" id="Capa_1" xmlns="http://www.w3.org/2000/svg" xmlns:xlink="http://www.w3.org/1999/xlink" x="0px" y="0px"
	 viewBox="0 0 330 330" style="enable-background:new 0 0 330 330;" xml:space="preserve">
<style type="text/css">
	.st0{fill:#949019;}
	.st1{fill:#fbedcc;}
</style>
<g>
	<path class="st0" d="M165,0C74,0,0,74,0,165s74,165,165,165s165-74,165-165S256,0,165,0z"/>
	<g>
		<path class="st1" d="M165,58c-8.3,0.1-15,6.8-14.9,15.1l0,0.7c0,0.1-0.1,0.1-0.1,0.2v119.6c0,8.3,6.7,15.1,15,15
			c8.3-0.1,15-6.8,14.9-15.1l0-0.7c0-0.1,0.1-0.1,0.1-0.2V73C180,64.6,173.3,57.9,165,58z"/>
		<circle class="st1" cx="165" cy="242.8" r="17.3"/>
	</g>
</g>
</svg>
